<?xml version="1.0" standalone="no"?>
<!DOCTYPE svg PUBLIC "-//W3C//DTD SVG 20010904//EN"
 "http://www.w3.org/TR/2001/REC-SVG-20010904/DTD/svg10.dtd">
<svg version="1.0" xmlns="http://www.w3.org/2000/svg"
 width="282.000000pt" height="282.000000pt" viewBox="0 0 282.000000 282.000000"
 preserveAspectRatio="xMidYMid meet">
<metadata>
Created by potrace 1.14, written by Peter Selinger 2001-2017
</metadata>
<g transform="translate(0.000000,282.000000) scale(0.100000,-0.100000)"
fill="#000000" stroke="none">
<path d="M1547 2128 c-2 -7 -131 -328 -285 -713 -155 -385 -284 -708 -288
-718 -6 -16 3 -17 141 -15 l147 3 149 375 c83 206 154 384 159 395 5 11 37 90
71 175 33 85 67 169 74 185 27 60 125 309 125 317 0 14 -287 10 -293 -4z"/>
<path d="M578 2091 c-7 -10 -72 -81 -143 -157 -336 -358 -384 -409 -410 -440
l-23 -27 172 -167 c352 -344 431 -420 437 -420 4 0 50 50 103 111 94 108 96
112 77 128 -11 9 -77 71 -148 138 -70 66 -153 143 -183 171 l-55 51 46 48 c25
26 70 73 100 104 30 31 101 105 158 164 l104 108 -94 91 c-130 125 -124 121
-141 97z"/>
<path d="M2110 2005 l-105 -105 85 -86 c47 -48 108 -110 135 -139 28 -28 82
-84 120 -124 l70 -72 -35 -30 c-30 -26 -125 -115 -328 -306 l-44 -42 98 -114
c91 -105 100 -113 115 -98 46 47 554 538 570 552 10 9 19 20 19 25 0 11 -36
51 -133 154 -40 42 -121 129 -182 194 -60 66 -148 159 -195 207 l-85 89 -105
-105z"/>
</g>
</svg>
